<svg xmlns="http://www.w3.org/2000/svg" xmlns:xlink="http://www.w3.org/1999/xlink" viewBox="0 0 425.98 73.73"><defs><style>.cls-1,.cls-2,.cls-3,.cls-4,.cls-5,.cls-6,.cls-7,.cls-8,.cls-9{fill-rule:evenodd;}.cls-1{fill:url(#GradientFill_1);}.cls-2{fill:url(#GradientFill_2);}.cls-3{fill:url(#GradientFill_3);}.cls-4{fill:url(#GradientFill_4);}.cls-5{fill:url(#GradientFill_5);}.cls-6{fill:url(#GradientFill_6);}.cls-7{fill:url(#GradientFill_7);}.cls-10,.cls-8{fill:#5c91c6;}.cls-9{fill:#7e7d7d;}</style><linearGradient id="GradientFill_1" x1="11.3" y1="61.75" x2="54.49" y2="61.75" gradientUnits="userSpaceOnUse"><stop offset="0" stop-color="#344f86"/><stop offset="1" stop-color="#1f3350"/></linearGradient><linearGradient id="GradientFill_2" x1="1.14" y1="49.62" x2="64.65" y2="49.62" gradientUnits="userSpaceOnUse"><stop offset="0" stop-color="#d1d7dd"/><stop offset="0.5" stop-color="#6492c0"/><stop offset="1" stop-color="#264c6f"/></linearGradient><linearGradient id="GradientFill_3" x1="0.01" y1="37.59" x2="65.78" y2="37.59" gradientUnits="userSpaceOnUse"><stop offset="0" stop-color="#de905e"/><stop offset="0.49" stop-color="#d56a35"/><stop offset="1" stop-color="#7d2713"/></linearGradient><linearGradient id="GradientFill_4" y1="31.41" x2="65.79" y2="31.41" gradientUnits="userSpaceOnUse"><stop offset="0" stop-color="#dfe1dd"/><stop offset="0.11" stop-color="#e9ecdc"/><stop offset="0.55" stop-color="#dadf3e"/><stop offset="1" stop-color="#406e30"/></linearGradient><linearGradient id="GradientFill_5" x1="0.21" y1="23.48" x2="65.58" y2="23.48" gradientUnits="userSpaceOnUse"><stop offset="0" stop-color="#e6e3e2"/><stop offset="0.11" stop-color="#fcf9e4"/><stop offset="0.55" stop-color="#f4d750"/><stop offset="1" stop-color="#95461f"/></linearGradient><linearGradient id="GradientFill_6" x1="3.65" y1="14.39" x2="62.14" y2="14.39" gradientUnits="userSpaceOnUse"><stop offset="0" stop-color="#dfc044"/><stop offset="0.86" stop-color="#eae2cb"/><stop offset="1" stop-color="#cac6bc"/></linearGradient><linearGradient id="GradientFill_7" x1="8.37" y1="5.48" x2="57.42" y2="5.48" gradientUnits="userSpaceOnUse"><stop offset="0" stop-color="#c7681e"/><stop offset="1" stop-color="#edc131"/></linearGradient></defs><title>Asset 2</title><g id="Layer_2" data-name="Layer 2"><g id="_1" data-name="1"><path class="cls-1" d="M54.49,57.72H11.3a32.9,32.9,0,0,0,43.18,0Z"/><path class="cls-1" d="M54.49,57.72H11.3a32.9,32.9,0,0,0,43.18,0Z"/><path class="cls-1" d="M54.49,57.72H11.3a32.9,32.9,0,0,0,43.18,0Z"/><path class="cls-2" d="M11.3,57.72H54.49A32.91,32.91,0,0,0,64.65,41.52H1.14A32.9,32.9,0,0,0,11.3,57.72Z"/><path class="cls-2" d="M11.3,57.72H54.49A32.91,32.91,0,0,0,64.65,41.52H1.14A32.9,32.9,0,0,0,11.3,57.72Z"/><path class="cls-2" d="M11.3,57.72H54.49A32.91,32.91,0,0,0,64.65,41.52H1.14A32.9,32.9,0,0,0,11.3,57.72Z"/><path class="cls-3" d="M1.14,41.52H64.65a32.9,32.9,0,0,0,1.13-7.86H0A32.9,32.9,0,0,0,1.14,41.52Z"/><path class="cls-3" d="M1.14,41.52H64.65a32.9,32.9,0,0,0,1.13-7.86H0A32.9,32.9,0,0,0,1.14,41.52Z"/><path class="cls-3" d="M1.14,41.52H64.65a32.9,32.9,0,0,0,1.13-7.86H0A32.9,32.9,0,0,0,1.14,41.52Z"/><path class="cls-4" d="M0,33.67H65.78q0-.38,0-.77a33.26,33.26,0,0,0-.21-3.75H.21A33.26,33.26,0,0,0,0,32.9Q0,33.28,0,33.67Z"/><path class="cls-4" d="M0,33.67H65.78q0-.38,0-.77a33.26,33.26,0,0,0-.21-3.75H.21A33.26,33.26,0,0,0,0,32.9Q0,33.28,0,33.67Z"/><path class="cls-4" d="M0,33.67H65.78q0-.38,0-.77a33.26,33.26,0,0,0-.21-3.75H.21A33.26,33.26,0,0,0,0,32.9Q0,33.28,0,33.67Z"/><path class="cls-5" d="M.21,29.15H65.58a32.67,32.67,0,0,0-3.44-11.34H3.65A32.68,32.68,0,0,0,.21,29.15Z"/><path class="cls-5" d="M.21,29.15H65.58a32.67,32.67,0,0,0-3.44-11.34H3.65A32.68,32.68,0,0,0,.21,29.15Z"/><path class="cls-5" d="M.21,29.15H65.58a32.67,32.67,0,0,0-3.44-11.34H3.65A32.68,32.68,0,0,0,.21,29.15Z"/><path class="cls-6" d="M3.65,17.81H62.14A33,33,0,0,0,57.42,11h-49A33,33,0,0,0,3.65,17.81Z"/><path class="cls-6" d="M3.65,17.81H62.14A33,33,0,0,0,57.42,11h-49A33,33,0,0,0,3.65,17.81Z"/><path class="cls-6" d="M3.65,17.81H62.14A33,33,0,0,0,57.42,11h-49A33,33,0,0,0,3.65,17.81Z"/><path class="cls-7" d="M8.37,11h49a32.9,32.9,0,0,0-49,0Z"/><path class="cls-7" d="M8.37,11h49a32.9,32.9,0,0,0-49,0Z"/><path class="cls-7" d="M8.37,11h49a32.9,32.9,0,0,0-49,0Z"/><path class="cls-8" d="M173.09,47.21v1.85l6,.07V24h-6l0,2c-2.2-1.11-3.11-2.2-6.59-2.53-15-1.4-19.83,18.05-8,24.58a14.25,14.25,0,0,0,7.59,1.6c4.12-.23,4.86-1.45,7-2.45ZM117,23.61c-7.09,1.06-12.65,6.89-11.46,15,1,7,7.56,12,15.7,10.95,7.08-.93,12.82-6.77,11.6-15.08-1-6.88-7.69-12.12-15.84-10.91Zm130,20.72.07,4.81h2.08L249.29,24H247.1v5.37c-1.79-2.15-2.69-3.5-5.8-4.82a13.12,13.12,0,0,0-18.14,12.08C223.14,46.72,233,51.88,241,49a13.54,13.54,0,0,0,3.41-1.88,11.07,11.07,0,0,0,1.44-1.3c.4-.43.81-1,1.22-1.44ZM104.59,45.4A13.84,13.84,0,0,1,101,47.89c-10.43,5.16-24.23-.71-24.29-14.53s14-19.87,24.3-14.55a13.73,13.73,0,0,1,3.45,2.55l-3,4.85c-.72-.44-1.42-1.08-2.34-1.63-7-4.23-15.93.5-15.17,9.69.59,7.15,7.1,10.95,13.71,8.6,2.81-1,3.39-2,4.9-2.93l2.11,5.46ZM235.12,25.66c6.38-.81,11.21,4,11.9,9.61a10.85,10.85,0,0,1-9.31,12.42,10.7,10.7,0,0,1-12.17-9.58,10.93,10.93,0,0,1,9.57-12.45Zm62.52,20.47-1.06-1.8c-.76.47-1.37,1.23-2.38,1.84-7.78,4.68-17.15-1.81-16.41-9.66h21.29c.28-6.48-2.16-12-9.17-13.11-10.89-1.66-16.82,9.2-13.67,17.84a12.32,12.32,0,0,0,4.88,6.25,13.32,13.32,0,0,0,8.76,2.16,12.38,12.38,0,0,0,7.75-3.52ZM193.89,49.24V44c-3.16,0-3.46-1.53-3.46-4.42,0-3.3.15-22.4-.06-24h-6.15c-.24,2.49,0,18,0,21.84,0,6.52-.42,12.87,9.71,11.87ZM142.21,29.41l.33-.48.07-.12c1.79-3.16,4.45-5.46,8.64-5.06l0,6.19c-10.72-.89-8.86,11.16-8.85,19.19h-6.29V24l6.06.06,0,5.34Zm-24.09-.51c9.77-1.64,11.86,14,2.21,15.38-9.83,1.38-11.92-13.75-2.21-15.38Zm46.76-.15a7.37,7.37,0,0,1,8.21,6.8c1.06,10.53-13.74,11.84-14.75,1.8a7.54,7.54,0,0,1,6.54-8.6Zm113,5.71c2-12.7,18.85-11.94,18.92,0ZM263,49.14c-.54-.26-.3,0-.62-.75l-2.15-5.51c-.81-2.07-1.63-4.12-2.47-6.28-1.62-4.15-3.44-8.39-4.91-12.52L255,24c.25.5,1.83,4.33,2.24,5.37,1.58,4,5.6,13.61,6.31,16.66a1.09,1.09,0,0,0,.3-.42L268,34.93c.74-1.87,1.43-3.64,2.16-5.5A57.74,57.74,0,0,0,272.23,24l2.35.1-9.74,25Zm-54.67.12V47.31l-1.14.07c-4,.23-6.2-3.43-6.2-7.44V26h6.7l0-2H201c-.13-1.6,0-5.3,0-7.11h-2.23c0,7,0,14,0,21,0,6.56,1.36,12.13,9.58,11.33ZM214,29.75l.47-.72c.13-.25.18-.38.3-.6a11,11,0,0,1,.79-1.21,9.49,9.49,0,0,1,1.87-2c1.72-1.39,3.41-1.82,6.18-1.53l0,2.21c-5.18-.33-7.73,3.33-9,7.46-1.47,4.78-.1,10.78-.71,15.74l-2.14,0V24l2.18.08,0,5.62ZM310,49.3V47.23c-3.55.28-3.84-1.7-3.83-4.93,0-3.77.15-24.83,0-26.77H304c-.23,2.34,0,16.43,0,20C304,42,302.25,50.13,310,49.3Z"/><path class="cls-9" d="M86.83,66.65a3.13,3.13,0,0,1-1.16,2.62,5.36,5.36,0,0,1-3.37.91H77.75V58h4.32a5,5,0,0,1,3,.83,2.67,2.67,0,0,1,1.11,2.27,2.75,2.75,0,0,1-1.75,2.6,2.89,2.89,0,0,1,2.34,2.91Zm-7.47-3.53h2.7a3.54,3.54,0,0,0,2-.43,1.59,1.59,0,0,0,.63-1.42A1.57,1.57,0,0,0,84,59.93a3.73,3.73,0,0,0-2.13-.45H79.36v3.64Zm0,5.61h2.92q2.88,0,2.88-2.09a1.86,1.86,0,0,0-.67-1.59,4.24,4.24,0,0,0-2.42-.5H79.36v4.17Zm15.06-.87V65.92H93.35q-3.4,0-3.39,1.85a1.19,1.19,0,0,0,.5,1,2.23,2.23,0,0,0,1.34.36,3.4,3.4,0,0,0,1.49-.35,2.88,2.88,0,0,0,1.13-.94Zm0,1.41a4.34,4.34,0,0,1-3.07,1.11,3.25,3.25,0,0,1-2.15-.71,2.28,2.28,0,0,1-.84-1.83q0-3.08,5.3-3.08h.76a6.78,6.78,0,0,0-.1-1.37,1.14,1.14,0,0,0-.55-.71,2.84,2.84,0,0,0-1.45-.28q-2.09,0-2.15,1.49H88.61q.17-2.7,3.79-2.71a4.47,4.47,0,0,1,2.63.67A3.05,3.05,0,0,1,96,64.49v5.68H94.42v-.9Zm15.16.9H98.29V61.39h1.57V69h3.3V61.39h1.56V69H108V61.39h1.55v8.78Zm10.37-9a3.92,3.92,0,0,1,3,1.2,5.69,5.69,0,0,1,0,6.79,4.33,4.33,0,0,1-6,0,5.69,5.69,0,0,1,0-6.79,3.91,3.91,0,0,1,3-1.2Zm0,8a2.23,2.23,0,0,0,1.81-.85,4.93,4.93,0,0,0,0-5.05,2.37,2.37,0,0,0-3.63,0,4.93,4.93,0,0,0,0,5.05,2.23,2.23,0,0,0,1.81.85Zm5-6.54V61.39h7.16v1.22h-2.8v7.56h-1.55V62.61ZM140.86,69h1.27v3.58h-1.56V70.17H134v2.36h-1.56V69h.78q1.53-2.17,1.53-7.14v-.42h6.12V69Zm-1.56-6.34h-3A14.67,14.67,0,0,1,135,69h4.34V62.61Zm5.74,2.2h2a4.39,4.39,0,0,1,2.69.72,2.48,2.48,0,0,1,0,3.92,4.4,4.4,0,0,1-2.69.72h-3.53V61.39H145v3.43ZM145,69h1.9q2.1,0,2.1-1.46T146.94,66H145V69Zm8.29,1.22h-1.57V61.39h1.57v8.78Zm9.51,0H160.9l-2.18-3.43-2.18,3.43h-1.94l3.25-4.56-3-4.22h1.94l1.93,3.07,1.93-3.07h1.94l-3,4.21,3.24,4.58Zm9.88,0h-4.11V61.39h3.56q3.25,0,3.24,2.33a1.89,1.89,0,0,1-1.14,1.9,2,2,0,0,1,1.53,2.1A2.19,2.19,0,0,1,175,69.5a3.5,3.5,0,0,1-2.26.67Zm-2.54-7.56v2.46H172a2.59,2.59,0,0,0,1.4-.29,1.23,1.23,0,0,0,0-1.87,2.79,2.79,0,0,0-1.5-.3Zm0,3.68V69h2q2,0,2-1.32t-2.1-1.34Zm11.94,3.88V61.39h1.57V65h4V61.39h1.56v8.78h-1.56V66.26h-4v3.92Zm15-2.31V65.92H196q-3.4,0-3.39,1.85a1.19,1.19,0,0,0,.5,1,2.23,2.23,0,0,0,1.34.36,3.4,3.4,0,0,0,1.49-.35,2.88,2.88,0,0,0,1.13-.94Zm0,1.41A4.34,4.34,0,0,1,194,70.38a3.25,3.25,0,0,1-2.15-.71,2.28,2.28,0,0,1-.84-1.83q0-3.08,5.3-3.08h.76a6.79,6.79,0,0,0-.1-1.37,1.14,1.14,0,0,0-.55-.71,2.84,2.84,0,0,0-1.45-.28q-2.09,0-2.15,1.49H191.3q.17-2.7,3.79-2.71a4.47,4.47,0,0,1,2.63.67,3.05,3.05,0,0,1,.94,2.63v5.68h-1.56v-.9ZM208.26,69h1.27v3.58H208V70.17h-6.58v2.36h-1.56V69h.78q1.53-2.17,1.53-7.14v-.42h6.12V69Zm-1.56-6.34h-3A14.67,14.67,0,0,1,202.36,69h4.34V62.61Zm7.91,7.77a4.14,4.14,0,0,1-3.11-1.21,4.66,4.66,0,0,1-1.18-3.38,4.75,4.75,0,0,1,1.14-3.37,3.88,3.88,0,0,1,3-1.22,3.92,3.92,0,0,1,3,1.2,4.78,4.78,0,0,1,1.12,3.39v.37h-6.62a3.4,3.4,0,0,0,.84,2.26,2.48,2.48,0,0,0,1.83.74,2.71,2.71,0,0,0,1.48-.42,1.41,1.41,0,0,0,.69-1.19h1.61a2.9,2.9,0,0,1-1.23,2.09,4.32,4.32,0,0,1-2.55.74Zm2.3-5.45A3.19,3.19,0,0,0,216,63a2.39,2.39,0,0,0-3.23,0,3.11,3.11,0,0,0-.85,1.9Zm14.22,5.24h-1.86l-3.33-3.73v3.73h-1.55V66.44L221,70.17h-1.86l4.26-4.63-4-4.15h1.88l3,3.3v-3.3h1.55v3.3l3-3.3h1.88l-4,4.15,4.26,4.63Zm1.18,0V61.39h1.57V65h4V61.39h1.56v8.78h-1.56V66.26h-4v3.92Zm11-5.36h2a4.4,4.4,0,0,1,2.69.72,2.48,2.48,0,0,1,0,3.92,4.4,4.4,0,0,1-2.69.72h-3.53V61.39h1.57v3.43Zm0,4.14h1.9q2.1,0,2.1-1.46T245.2,66h-1.9V69Zm8.29,1.22H250V61.39h1.57v8.78Zm9.51,0h-1.94L257,66.75l-2.18,3.43h-1.94l3.25-4.56-3-4.22H255L257,64.46l1.93-3.07h1.94l-3,4.21,3.24,4.58Zm7.34-7.73a3.32,3.32,0,0,1,5.17,0,5.26,5.26,0,0,1,.94,3.3,5.13,5.13,0,0,1-1.06,3.41,3.33,3.33,0,0,1-2.66,1.25,3.44,3.44,0,0,1-2.4-.88v4.06h-1.57V61.39h1.57v1.05Zm0,5.65a3.07,3.07,0,0,0,2.3,1.07,1.86,1.86,0,0,0,1.61-.87,4.57,4.57,0,0,0,.6-2.58,4.44,4.44,0,0,0-.57-2.46,1.79,1.79,0,0,0-1.57-.84,3,3,0,0,0-2.37,1.51v4.17Zm8.36,4.21q1.16,0,1.9-2.12L277,65.65l-1.61-4.26h1.69l1.37,4.06,1,2.81,2.33-6.87h1.69l-3.32,8.78q-.48,1.26-.81,1.94a3.61,3.61,0,0,1-.88,1.15,2,2,0,0,1-1.33.47,3.91,3.91,0,0,1-1-.12V72.18a2.47,2.47,0,0,0,.75.12ZM292,70.17h-1.87l-2.82-4.29-1,1.07v3.22h-1.57V61.39h1.57v3.75l3.39-3.75h2l-3.33,3.46L292,70.17Zm6.78-2.31V65.92h-1.07q-3.4,0-3.39,1.85a1.19,1.19,0,0,0,.5,1,2.23,2.23,0,0,0,1.34.36,3.4,3.4,0,0,0,1.49-.35,2.87,2.87,0,0,0,1.13-.94Zm0,1.41a4.34,4.34,0,0,1-3.07,1.11,3.25,3.25,0,0,1-2.15-.71,2.28,2.28,0,0,1-.84-1.83q0-3.08,5.3-3.08h.76a6.8,6.8,0,0,0-.1-1.37,1.14,1.14,0,0,0-.55-.71,2.84,2.84,0,0,0-1.45-.28q-2.09,0-2.15,1.49H293q.17-2.7,3.79-2.71a4.47,4.47,0,0,1,2.63.67,3.05,3.05,0,0,1,.94,2.63v5.68h-1.56v-.9Zm11.08.9H308l-2.18-3.43-2.18,3.43h-1.94l3.25-4.56-3-4.22h1.94l1.93,3.07,1.93-3.07h1.94l-3,4.21Z"/><path class="cls-8" d="M335.31,38.94a5.37,5.37,0,0,1-4.19-1.73,6.68,6.68,0,0,1-1.57-4.67,6.68,6.68,0,0,1,1.57-4.67,5.38,5.38,0,0,1,4.19-1.73,5.47,5.47,0,0,1,3.44,1.09,4,4,0,0,1,1.59,2.87h-1.68a2.52,2.52,0,0,0-1-1.87,4.12,4.12,0,0,0-5.29.6,5.57,5.57,0,0,0-1.1,3.7,5.6,5.6,0,0,0,1.09,3.7,4.1,4.1,0,0,0,5.3.59,2.78,2.78,0,0,0,1-2h1.68a4.15,4.15,0,0,1-1.55,3.05,5.45,5.45,0,0,1-3.48,1.08Zm10.9,0A4.22,4.22,0,0,1,343,37.7a4.75,4.75,0,0,1-1.2-3.45A4.84,4.84,0,0,1,343,30.82a4,4,0,0,1,3-1.24,4,4,0,0,1,3.06,1.22,4.87,4.87,0,0,1,1.14,3.46v.38h-6.74a3.47,3.47,0,0,0,.86,2.3,2.53,2.53,0,0,0,1.86.75,2.76,2.76,0,0,0,1.5-.43,1.43,1.43,0,0,0,.71-1.21h1.64a3,3,0,0,1-1.25,2.13,4.4,4.4,0,0,1-2.6.75Zm2.34-5.55a3.25,3.25,0,0,0-.87-1.93,2.44,2.44,0,0,0-3.29,0,3.17,3.17,0,0,0-.87,1.94Zm2.6-2.36V29.78h7.29V31h-2.85v7.7H354V31Zm10.37,2.24h2a4.48,4.48,0,0,1,2.74.73,2.52,2.52,0,0,1,0,4,4.48,4.48,0,0,1-2.74.73h-3.59v-9h1.6v3.49Zm0,4.22h1.93q2.14,0,2.14-1.49t-2.14-1.49h-1.93v3Zm-22.6,9.9h-4.09v10.9h-1.64V47.39h-4.06V45.92h9.8v1.47ZM341,60.45q1.18,0,1.93-2.16l-1.75-4.61-1.64-4.34h1.72l1.39,4.13,1,2.87,2.37-7h1.72l-3.38,9q-.49,1.28-.83,2a3.68,3.68,0,0,1-.9,1.17,2,2,0,0,1-1.35.48,4,4,0,0,1-1-.12V60.33a2.53,2.53,0,0,0,.76.12Zm9.73-10a3.39,3.39,0,0,1,5.27,0,5.36,5.36,0,0,1,1,3.36,5.23,5.23,0,0,1-1.08,3.48,3.39,3.39,0,0,1-2.71,1.28,3.51,3.51,0,0,1-2.45-.9v4.13h-1.6V49.34h1.6v1.07Zm0,5.75a3.13,3.13,0,0,0,2.34,1.09,1.89,1.89,0,0,0,1.64-.88,4.66,4.66,0,0,0,.61-2.63,4.53,4.53,0,0,0-.58-2.51,1.82,1.82,0,0,0-1.6-.86,3,3,0,0,0-2.41,1.53v4.25Zm13.69-.23V54h-1.09q-3.46,0-3.46,1.88a1.21,1.21,0,0,0,.51,1.05,2.28,2.28,0,0,0,1.37.37,3.46,3.46,0,0,0,1.52-.35,2.93,2.93,0,0,0,1.15-1Zm0,1.43a4.42,4.42,0,0,1-3.13,1.13,3.31,3.31,0,0,1-2.19-.72,2.32,2.32,0,0,1-.86-1.86q0-3.14,5.41-3.14h.78a6.94,6.94,0,0,0-.1-1.4,1.16,1.16,0,0,0-.56-.72,2.9,2.9,0,0,0-1.48-.29q-2.13,0-2.19,1.52h-1.59q.18-2.76,3.87-2.76a4.56,4.56,0,0,1,2.68.69,3.11,3.11,0,0,1,1,2.68v5.79H364.4v-.92Zm5.54-6.79v7.7h-1.6v-9h5.27v1.25Zm8.83,7.92a4.22,4.22,0,0,1-3.17-1.24,4.75,4.75,0,0,1-1.2-3.45,4.84,4.84,0,0,1,1.16-3.44,4,4,0,0,1,3-1.24,4,4,0,0,1,3.06,1.22,4.87,4.87,0,0,1,1.14,3.46v.38H376a3.47,3.47,0,0,0,.86,2.3,2.53,2.53,0,0,0,1.86.75,2.76,2.76,0,0,0,1.5-.43,1.44,1.44,0,0,0,.71-1.21h1.64a3,3,0,0,1-1.25,2.13,4.4,4.4,0,0,1-2.6.75Zm2.34-5.55a3.25,3.25,0,0,0-.87-1.93,2.44,2.44,0,0,0-3.29,0,3.17,3.17,0,0,0-.87,1.94Zm3.46,5.34v-9h1.6V53h4.08V49.34h1.59v9h-1.59v-4h-4.08v4Zm8.75-7.7V49.34h7.29v1.25h-2.85v7.7h-1.58v-7.7Zm12.41,7.92a4,4,0,0,1-3.05-1.23,4.87,4.87,0,0,1-1.14-3.46,4.87,4.87,0,0,1,1.14-3.46,4.41,4.41,0,0,1,5.5-.48A3,3,0,0,1,409.34,52H407.7a1.52,1.52,0,0,0-.61-1.22,2.25,2.25,0,0,0-1.37-.42,2.28,2.28,0,0,0-1.85.86,4,4,0,0,0-.71,2.58,4,4,0,0,0,.71,2.57,2.28,2.28,0,0,0,1.85.87,2.23,2.23,0,0,0,1.37-.42,1.51,1.51,0,0,0,.61-1.22h1.64a3,3,0,0,1-1.16,2.14,3.94,3.94,0,0,1-2.45.74Zm4.15-7.92V49.34h7.29v1.25h-2.85v7.7h-1.58v-7.7Zm13,7.7h-4.18v-9h3.63q3.31,0,3.31,2.37a1.93,1.93,0,0,1-1.16,1.93A2,2,0,0,1,426,55.78a2.23,2.23,0,0,1-.84,1.82,3.56,3.56,0,0,1-2.3.68Zm-2.59-7.7v2.51h1.88a2.65,2.65,0,0,0,1.43-.29,1.25,1.25,0,0,0,0-1.91,2.85,2.85,0,0,0-1.53-.31Zm0,3.75V57h2.09c1.34,0,2-.45,2-1.35s-.71-1.37-2.14-1.37Z"/><rect class="cls-10" x="318.74" y="14.06" width="1.58" height="57.17"/></g></g></svg>