<?xml version="1.0" encoding="iso-8859-1"?>
<!-- Generator: Adobe Illustrator 19.0.0, SVG Export Plug-In . SVG Version: 6.00 Build 0)  -->
<svg version="1.1" id="Capa_1" xmlns="http://www.w3.org/2000/svg" xmlns:xlink="http://www.w3.org/1999/xlink" x="0px" y="0px"
	 viewBox="0 0 511.999 511.999" style="enable-background:new 0 0 511.999 511.999;" xml:space="preserve">
<g>
	<g>
		<path d="M511.824,215.523c-2.283-29.551-26.362-52.828-56.012-54.146c-0.809-0.036-1.612-0.055-2.415-0.059
			c-0.078-0.001-0.156-0.001-0.235-0.001c-5.746,0-11.379,0.894-16.751,2.634c-2.709-23.043-12.555-44.948-28.406-62.334
			c-19.536-21.427-46.744-34.406-75.526-36.239C319.717,34.618,289.824,14.416,256,14.416c-33.825,0-63.718,20.202-76.48,50.963
			c-28.782,1.833-55.989,14.811-75.525,36.239c-15.851,17.385-25.698,39.29-28.406,62.333c-5.439-1.761-11.149-2.657-16.988-2.632
			c-0.801,0.003-1.604,0.023-2.417,0.059c-29.647,1.318-53.725,24.596-56.008,54.146c-2.042,26.437,13.997,50.835,38.218,59.841
			v82.664v39.323c0,23.658,19.247,42.905,42.905,42.905h3.521l13.836,49.994c1.199,4.333,5.143,7.333,9.638,7.333h30.708
			c5.523,0,10-4.477,10-10v-47.327h213.998v47.327c0,5.523,4.478,10,10,10h30.708c4.495,0,8.439-3,9.638-7.333l13.836-49.994h3.521
			c23.658,0,42.905-19.247,42.905-42.905v-39.323v-82.663C497.826,266.359,513.866,241.96,511.824,215.523z M118.773,115.094
			c17.346-19.026,42.062-29.939,67.809-29.939c4.354,0,8.209-2.818,9.529-6.968c8.329-26.18,32.396-43.77,59.887-43.77
			c27.492,0,51.558,17.589,59.887,43.77c1.32,4.15,5.175,6.968,9.529,6.968c25.747,0,50.463,10.912,67.809,29.939
			c16.062,17.616,24.607,40.884,23.904,64.585c-0.027,0.878-0.065,1.746-0.113,2.599c-0.005,0.089-0.009,0.177-0.014,0.265
			c-0.058,0.964-0.128,1.911-0.213,2.829l-7.583,81.921c-8.245-9.321-19.102-16.27-31.417-19.7
			c-0.009-0.002-0.018-0.005-0.027-0.008c-1.043-0.29-2.095-0.554-3.158-0.793c-0.108-0.025-0.216-0.051-0.325-0.075
			c-0.961-0.211-1.931-0.397-2.907-0.565c-0.195-0.034-0.388-0.073-0.584-0.105c-0.893-0.145-1.794-0.265-2.699-0.373
			c-0.268-0.032-0.534-0.073-0.803-0.102c-0.865-0.092-1.737-0.158-2.611-0.216c-0.298-0.02-0.593-0.052-0.892-0.068
			c-1.085-0.058-2.177-0.087-3.276-0.09c-0.075,0-0.148-0.006-0.222-0.006H151.715c-0.075,0-0.148,0.006-0.222,0.006
			c-1.098,0.004-2.191,0.033-3.275,0.09c-0.299,0.016-0.594,0.048-0.892,0.068c-0.874,0.058-1.747,0.124-2.611,0.216
			c-0.269,0.029-0.535,0.07-0.803,0.102c-0.905,0.108-1.806,0.228-2.699,0.373c-0.195,0.032-0.389,0.071-0.584,0.105
			c-0.977,0.168-1.946,0.354-2.908,0.565c-0.108,0.024-0.215,0.051-0.324,0.075c-1.063,0.239-2.116,0.503-3.159,0.793
			c-0.009,0.002-0.018,0.005-0.027,0.008c-12.315,3.43-23.171,10.379-31.417,19.7l-7.582-81.918
			c-0.085-0.922-0.156-1.871-0.214-2.838c-0.005-0.082-0.008-0.164-0.013-0.246c-0.049-0.858-0.087-1.732-0.114-2.614
			C94.167,155.976,102.712,132.71,118.773,115.094z M405.566,308.757c0.023,0.585,0.045,1.169,0.045,1.759v37.512h-299.22v-37.512
			c0-0.59,0.022-1.174,0.045-1.759c0.021-0.451,0.047-0.926,0.083-1.448c0-0.001,0-0.002,0-0.003
			c1.391-19.922,15.738-36.204,34.418-40.809c0.013-0.003,0.027-0.006,0.04-0.009c0.665-0.163,1.335-0.311,2.011-0.445
			c0.109-0.021,0.219-0.038,0.328-0.059c0.588-0.112,1.178-0.216,1.773-0.304c0.23-0.034,0.463-0.058,0.694-0.088
			c0.485-0.064,0.97-0.13,1.46-0.178c0.406-0.04,0.816-0.064,1.225-0.093c0.327-0.024,0.652-0.055,0.981-0.072
			c0.751-0.037,1.507-0.058,2.268-0.058h208.568c0.76,0,1.516,0.02,2.268,0.058c0.329,0.016,0.654,0.048,0.981,0.072
			c0.409,0.029,0.819,0.053,1.225,0.093c0.49,0.049,0.975,0.114,1.46,0.178c0.231,0.03,0.464,0.055,0.694,0.088
			c0.595,0.088,1.185,0.192,1.773,0.304c0.109,0.021,0.219,0.037,0.328,0.059c0.675,0.133,1.346,0.281,2.011,0.445
			c0.013,0.003,0.027,0.006,0.04,0.009c18.679,4.605,33.026,20.885,34.418,40.809c0,0.001,0,0.002,0,0.003
			C405.519,307.832,405.546,308.306,405.566,308.757z M50.525,258.131c-18.828-4.108-31.902-21.763-30.41-41.067
			c1.48-19.167,17.713-34.852,36.951-35.707c0.543-0.024,1.083-0.037,1.618-0.039c0.051-0.001,0.099-0.001,0.149-0.001
			c5.729,0,11.29,1.409,16.312,4.108c0.046,0.603,0.096,1.2,0.15,1.79l11.137,120.315c0.007,0.079,0.016,0.158,0.024,0.237
			c-0.046,0.971-0.067,1.869-0.067,2.747v37.512H58.392v-80.126C58.392,263.201,55.118,259.133,50.525,258.131z M128.999,477.584
			H115.9l-10.33-37.327h23.43V477.584z M396.098,477.584h-13.099v-37.327h23.429L396.098,477.584z M453.607,397.352
			c0,12.629-10.274,22.904-22.904,22.904h-11.13h-46.573H139H92.427h-11.13c-10.795,0-19.863-7.508-22.272-17.575
			c1.481,0.867,3.199,1.372,5.038,1.372h302.259c5.522,0,10-4.477,10-10s-4.478-10-10-10H64.062c-2.107,0-4.059,0.655-5.671,1.768
			v-17.792h38h319.217h37.999V397.352z M461.474,258.133c-4.593,1.002-7.867,5.069-7.867,9.77v80.126h-27.999v-37.513
			c0-0.877-0.022-1.775-0.067-2.747c0.009-0.079,0.018-0.158,0.024-0.237l11.138-120.318c0.054-0.588,0.104-1.185,0.149-1.787
			c5.065-2.723,10.712-4.158,16.459-4.108c0.537,0.002,1.077,0.015,1.616,0.039c19.241,0.855,35.475,16.539,36.955,35.707
			C493.374,236.369,480.301,254.023,461.474,258.133z"/>
	</g>
</g>
<g>
	<g>
		<path d="M270.467,165.514l5.237-5.009c3.991-3.817,4.132-10.147,0.314-14.139c-3.819-3.992-10.147-4.131-14.139-0.315l-5.88,5.624
			l-5.88-5.624c-3.99-3.816-10.321-3.678-14.139,0.315c-3.817,3.991-3.677,10.321,0.314,14.139l5.237,5.009l-5.237,5.009
			c-3.99,3.818-4.131,10.148-0.314,14.139c1.965,2.054,4.594,3.088,7.228,3.088c2.485,0,4.974-0.92,6.911-2.774l5.88-5.624
			l5.88,5.624c1.938,1.853,4.426,2.774,6.911,2.774c2.633,0,5.264-1.034,7.228-3.088c3.817-3.991,3.677-10.321-0.314-14.139
			L270.467,165.514z"/>
	</g>
</g>
<g>
	<g>
		<path d="M376.3,165.514l5.237-5.009c3.991-3.817,4.132-10.147,0.314-14.139c-3.819-3.992-10.148-4.131-14.139-0.315l-5.88,5.624
			l-5.88-5.624c-3.99-3.816-10.32-3.678-14.139,0.315c-3.817,3.991-3.677,10.321,0.315,14.139l5.237,5.009l-5.237,5.009
			c-3.992,3.818-4.133,10.148-0.315,14.139c1.965,2.054,4.594,3.088,7.228,3.088c2.485,0,4.974-0.92,6.911-2.774l5.88-5.624
			l5.88,5.624c1.938,1.853,4.426,2.774,6.911,2.774c2.633,0,5.264-1.034,7.228-3.088c3.817-3.991,3.677-10.321-0.314-14.139
			L376.3,165.514z"/>
	</g>
</g>
<g>
	<g>
		<path d="M169.871,170.523l-5.237-5.009l5.237-5.009c3.991-3.817,4.132-10.147,0.315-14.139
			c-3.818-3.992-10.149-4.131-14.139-0.315l-5.88,5.624l-5.88-5.624c-3.989-3.816-10.321-3.678-14.139,0.315
			c-3.817,3.991-3.677,10.321,0.314,14.139l5.237,5.009l-5.237,5.009c-3.99,3.818-4.131,10.148-0.314,14.139
			c1.965,2.054,4.594,3.088,7.228,3.088c2.485,0,4.974-0.92,6.911-2.774l5.88-5.624l5.88,5.624c1.938,1.853,4.426,2.774,6.911,2.774
			c2.633,0,5.264-1.034,7.228-3.088C174.003,180.671,173.863,174.341,169.871,170.523z"/>
	</g>
</g>
<g>
	<g>
		<path d="M412.391,386.983c-1.859-1.86-4.439-2.93-7.07-2.93c-2.63,0-5.21,1.07-7.069,2.93c-1.86,1.86-2.931,4.44-2.931,7.07
			s1.07,5.21,2.931,7.07c1.859,1.86,4.44,2.93,7.069,2.93c2.631,0,5.211-1.07,7.07-2.93c1.86-1.86,2.93-4.44,2.93-7.07
			S414.252,388.843,412.391,386.983z"/>
	</g>
</g>
<g>
</g>
<g>
</g>
<g>
</g>
<g>
</g>
<g>
</g>
<g>
</g>
<g>
</g>
<g>
</g>
<g>
</g>
<g>
</g>
<g>
</g>
<g>
</g>
<g>
</g>
<g>
</g>
<g>
</g>
</svg>
